<svg width="18" height="18" viewBox="0 0 18 18" fill="none" xmlns="http://www.w3.org/2000/svg">
<path fill-rule="evenodd" clip-rule="evenodd" d="M0 0.84403C0 1.33969 0.346449 1.51516 0.587235 1.80333C0.981073 2.27465 2.01722 3.31785 2.25544 3.61563C2.33037 3.70976 2.34446 3.73474 2.43475 3.82311L6.51274 8.25331C6.78362 8.54597 7.02633 8.72463 7.06539 9.24719C7.09933 9.7025 7.06667 11.712 7.06667 12.3396V16.9805C7.06667 17.2341 7.03465 17.5159 7.12239 17.6984C7.26391 17.993 7.45603 18 7.7346 18C7.94464 18 8.12075 17.7695 8.22129 17.6433L10.5875 14.9121C10.7265 14.7263 10.7956 14.563 10.7937 14.239C10.7905 13.7574 10.7598 9.44635 10.8059 9.15369C10.8975 8.57606 11.1927 8.46656 11.4757 8.1009C11.6807 7.83514 12.8782 6.63633 13.1132 6.3283L16.3881 2.78248C16.6424 2.46421 16.9306 2.21318 17.2002 1.90707C17.2815 1.81422 17.2988 1.77195 17.3936 1.67845C17.6305 1.44279 17.8598 1.2526 17.8598 0.84403C17.8598 0.411128 17.5453 0 17.1214 0H0.738366C0.321474 0 0 0.416892 0 0.84403Z" fill="#6A5BD0"/>
</svg>
