<svg width="36" height="36" viewBox="0 0 36 36" fill="none" xmlns="http://www.w3.org/2000/svg">
<g clip-path="url(#clip0_20_7577)">
<circle cx="18" cy="18" r="18" fill="#FFCE73"/>
<path d="M27.5047 34C26.1488 34 24.9337 33.7798 23.8595 33.3394C22.7852 32.8989 21.9223 32.2471 21.2708 31.3839C20.6368 30.5206 20.3022 29.4812 20.267 28.2656H25.0745C25.145 28.9527 25.3827 29.4812 25.7878 29.8512C26.1928 30.2035 26.7211 30.3797 27.3727 30.3797C28.0418 30.3797 28.5701 30.23 28.9576 29.9305C29.345 29.6134 29.5387 29.1817 29.5387 28.6356C29.5387 28.1776 29.3802 27.7988 29.0632 27.4993C28.7639 27.1998 28.3852 26.9532 27.9274 26.7594C27.4871 26.5656 26.8532 26.3454 26.0255 26.0987C24.828 25.7288 23.8506 25.3588 23.0934 24.9889C22.3362 24.6189 21.6846 24.0728 21.1387 23.3505C20.5928 22.6282 20.3198 21.6857 20.3198 20.5229C20.3198 18.7965 20.945 17.4488 22.1953 16.4798C23.4456 15.4933 25.0745 15 27.0821 15C29.1249 15 30.7714 15.4933 32.0217 16.4798C33.272 17.4488 33.9412 18.8053 34.0293 20.5494H29.1425C29.1073 19.9504 28.8871 19.4835 28.4821 19.1488C28.0771 18.7965 27.5576 18.6203 26.9236 18.6203C26.3777 18.6203 25.9374 18.7701 25.6028 19.0695C25.2683 19.3514 25.101 19.7654 25.101 20.3115C25.101 20.9105 25.3827 21.3774 25.9462 21.7121C26.5098 22.0468 27.3903 22.408 28.5878 22.7955C29.7852 23.2007 30.7538 23.5883 31.4934 23.9583C32.2506 24.3282 32.9022 24.8656 33.4481 25.5702C33.994 26.2749 34.267 27.1822 34.267 28.2921C34.267 29.3491 33.994 30.3092 33.4481 31.1725C32.9198 32.0357 32.145 32.7228 31.1236 33.2337C30.1022 33.7446 28.8959 34 27.5047 34Z" fill="#1C212D"/>
<path d="M19 7V25H14.483V14.2051L10.3358 25H6.69057L2.51698 14.1795V25H-2V7H3.33585L8.53962 19.4615L13.6906 7H19Z" fill="#1C212D"/>
</g>
<defs>
<clipPath id="clip0_20_7577">
<rect width="36" height="36" rx="18" fill="white"/>
</clipPath>
</defs>
</svg>
