<svg width="24" height="24" viewBox="0 0 24 24" fill="none" xmlns="http://www.w3.org/2000/svg">
<path d="M19.205 16.9618C19.0298 16.7842 19.0058 16.4776 19.1402 16.266C20.1963 14.619 20.8155 12.6581 20.8155 10.5512C20.8155 4.73188 16.145 0 10.4089 0C4.66806 0 0 4.73188 0 10.5512C0 16.3682 4.66806 21.1 10.4089 21.1C12.6434 21.1 14.7122 20.3726 16.4114 19.1513C16.6106 19.0054 16.9106 19.0248 17.0858 19.2L20.8059 22.9709C20.8299 22.9952 20.8563 23.0196 20.8827 23.039C20.9259 23.0755 21.1059 23.2458 21.2787 23.4234L21.7203 23.8686C21.8955 24.0438 22.1787 24.0438 22.3515 23.8686L23.8683 22.3311C24.0435 22.1535 24.0435 21.8664 23.8707 21.6888L19.205 16.9618ZM16.7042 15.4656C16.361 15.9181 15.9746 16.3317 15.5474 16.699C14.1602 17.8936 12.3674 18.6185 10.4089 18.6185C6.01928 18.6185 2.44803 14.9985 2.44803 10.5512C2.44803 6.104 6.01928 2.4815 10.4089 2.4815C14.7962 2.4815 18.3674 6.10157 18.3674 10.5512C18.3674 12.4002 17.741 14.1032 16.7042 15.4656Z" fill="white"/>
</svg>
