<svg width="12" height="12" viewBox="0 0 12 12" fill="none" xmlns="http://www.w3.org/2000/svg">
<path opacity="0.5" d="M9.60252 8.48089C9.51492 8.39209 9.50292 8.23882 9.57012 8.13299C10.0981 7.30948 10.4077 6.32904 10.4077 5.27562C10.4077 2.36594 8.0725 0 5.20446 0C2.33403 0 0 2.36594 0 5.27562C0 8.18408 2.33403 10.55 5.20446 10.55C6.32168 10.55 7.35609 10.1863 8.2057 9.57567C8.3053 9.50269 8.45531 9.51242 8.54291 9.6L10.4029 11.4855C10.4149 11.4976 10.4281 11.5098 10.4413 11.5195C10.4629 11.5378 10.5529 11.6229 10.6393 11.7117L10.8601 11.9343C10.9477 12.0219 11.0893 12.0219 11.1757 11.9343L11.9341 11.1655C12.0217 11.0767 12.0217 10.9332 11.9353 10.8444L9.60252 8.48089ZM8.3521 7.73279C8.1805 7.95905 7.9873 8.16584 7.7737 8.34952C7.08009 8.94678 6.18368 9.30927 5.20446 9.30927C3.00964 9.30927 1.22402 7.49924 1.22402 5.27562C1.22402 3.052 3.00964 1.24075 5.20446 1.24075C7.39809 1.24075 9.18371 3.05079 9.18371 5.27562C9.18371 6.2001 8.87051 7.0516 8.3521 7.73279Z" fill="black"/>
</svg>
