<svg width="24" height="16" viewBox="0 0 24 16" fill="none" xmlns="http://www.w3.org/2000/svg">
<path d="M12 0.125488C6.88636 0.125488 2.51932 3.30617 0.75 7.79594C2.51932 12.2857 6.88636 15.4664 12 15.4664C17.1136 15.4664 21.4807 12.2857 23.25 7.79594C21.4807 3.30617 17.1136 0.125488 12 0.125488ZM12 12.9096C9.17727 12.9096 6.88636 10.6187 6.88636 7.79594C6.88636 4.97322 9.17727 2.68231 12 2.68231C14.8227 2.68231 17.1136 4.97322 17.1136 7.79594C17.1136 10.6187 14.8227 12.9096 12 12.9096ZM12 4.72776C10.3023 4.72776 8.93182 6.09822 8.93182 7.79594C8.93182 9.49367 10.3023 10.8641 12 10.8641C13.6977 10.8641 15.0682 9.49367 15.0682 7.79594C15.0682 6.09822 13.6977 4.72776 12 4.72776Z" fill="black"/>
</svg>
